<svg width="217" height="18" viewBox="0 0 217 18" fill="none" xmlns="http://www.w3.org/2000/svg">
<path d="M118.17 0.00968437C117.218 0.660218 116.163 1.15777 115.046 1.48319C114.447 0.816268 113.651 0.343574 112.765 0.129034C111.879 -0.0855054 110.946 -0.0315393 110.093 0.283634C109.24 0.598807 108.508 1.15998 107.995 1.89126C107.482 2.62253 107.213 3.48863 107.226 4.3724V5.33548C105.477 5.37936 103.745 5.004 102.182 4.24282C100.62 3.48164 99.2762 2.35827 98.2709 0.972757C98.2709 0.972757 94.2911 9.64041 103.246 13.4927C101.197 14.839 98.7557 15.5141 96.281 15.4188C105.236 20.2342 116.18 15.4188 116.18 4.34351C116.179 4.07525 116.153 3.80765 116.101 3.54416C117.116 2.57482 117.833 1.35097 118.17 0.00968437Z" fill="#B3B3B3"/>
<path d="M12.9608 0H4.32027C1.93425 0 0 1.93425 0 4.32027V12.9608C0 15.3468 1.93425 17.2811 4.32027 17.2811H12.9608C15.3468 17.2811 17.2811 15.3468 17.2811 12.9608V4.32027C17.2811 1.93425 15.3468 0 12.9608 0Z" fill="#B3B3B3"/>
<path d="M12.0968 8.09622C12.2034 8.81532 12.0806 9.54974 11.7457 10.195C11.4109 10.8403 10.8812 11.3636 10.2318 11.6904C9.58245 12.0172 8.84657 12.131 8.12884 12.0155C7.4111 11.9 6.74806 11.5611 6.23402 11.0471C5.71997 10.5331 5.3811 9.87001 5.26561 9.15228C5.15012 8.43454 5.26388 7.69866 5.59072 7.04931C5.91755 6.39996 6.44082 5.87019 7.0861 5.53537C7.73137 5.20055 8.46579 5.07773 9.1849 5.18436C9.91841 5.29313 10.5975 5.63493 11.1218 6.15928C11.6462 6.68362 11.988 7.36271 12.0968 8.09622Z" fill="white"/>
<path d="M13.3929 3.88818H13.4022" stroke="white" stroke-width="4" stroke-linecap="round" stroke-linejoin="round"/>
<path d="M211.131 5.40039C212.563 5.40039 213.937 5.97811 214.95 7.00645C215.962 8.03479 216.531 9.42952 216.531 10.8838V17.2811H212.931V10.8838C212.931 10.399 212.742 9.93414 212.404 9.59136C212.066 9.24858 211.609 9.056 211.131 9.056C210.654 9.056 210.196 9.24858 209.858 9.59136C209.521 9.93414 209.331 10.399 209.331 10.8838V17.2811H205.731V10.8838C205.731 9.42952 206.3 8.03479 207.312 7.00645C208.325 5.97811 209.699 5.40039 211.131 5.40039V5.40039Z" fill="#B3B3B3"/>
<path d="M202.491 6.48022H198.17V17.2809H202.491V6.48022Z" fill="#B3B3B3"/>
<path d="M200.331 4.32027C201.524 4.32027 202.492 3.35315 202.492 2.16014C202.492 0.967126 201.524 0 200.331 0C199.138 0 198.171 0.967126 198.171 2.16014C198.171 3.35315 199.138 4.32027 200.331 4.32027Z" fill="#B3B3B3"/>
</svg>
