<svg width="104" height="20" viewBox="0 0 104 20" fill="none" xmlns="http://www.w3.org/2000/svg">
<path d="M0.579141 15H6.25914C9.25914 15 11.0391 13.58 11.0391 11.12C11.0391 9.52 10.1391 8.34 8.45914 7.84C9.63914 7.34 10.2791 6.36 10.2791 5.1C10.2791 2.82 8.45914 1.4 5.57914 1.4H0.579141V15ZM5.51914 3.18C7.05914 3.18 7.97914 3.96 7.97914 5.22C7.97914 6.38 7.07914 7.18 5.47914 7.18H2.81914V3.18H5.51914ZM5.97914 8.92C7.71914 8.92 8.73914 9.76 8.73914 11.06C8.73914 12.36 7.77914 13.22 6.19914 13.22H2.81914V8.92H5.97914ZM22.5745 11.52H20.3345C19.9745 12.84 19.0145 13.48 17.6545 13.48C15.9145 13.48 14.8945 12.26 14.7745 10.08H22.4945V9.56C22.4945 6.14 20.6345 4.06 17.5545 4.06C14.5145 4.06 12.5945 6.06 12.5945 9.68C12.5945 13.16 14.5145 15.26 17.6545 15.26C20.1545 15.26 21.9945 14 22.5745 11.52ZM17.5545 5.84C19.0745 5.84 20.0145 6.82 20.2745 8.62H14.8345C15.0945 6.82 16.0145 5.84 17.5545 5.84ZM29.3237 19.66C31.2237 19.66 32.0437 18.9 33.1237 16.24L37.9637 4.34H35.7837L33.2237 10.98L32.7637 12.44L32.3037 10.98L29.6637 4.34H27.3637L31.6437 14.62L31.3237 15.36C30.4037 17.58 29.9437 17.82 28.7237 17.82H28.1437V19.46C28.3837 19.54 28.8637 19.66 29.3237 19.66ZM43.6487 15.26C46.6887 15.26 48.6287 13.28 48.6287 9.68C48.6287 6.2 46.7487 4.06 43.6487 4.06C40.6087 4.06 38.6687 6.06 38.6687 9.68C38.6687 13.16 40.5487 15.26 43.6487 15.26ZM43.6487 13.46C41.8487 13.46 40.8487 12.1 40.8487 9.68C40.8487 7.2 41.8487 5.86 43.6487 5.86C45.4487 5.86 46.4487 7.24 46.4487 9.68C46.4487 12.14 45.4687 13.46 43.6487 13.46ZM57.4321 10.58C57.4321 12.06 56.4721 13.48 54.9121 13.48C53.4921 13.48 52.8521 12.56 52.8521 11.02V4.34H50.7121V11.46C50.7121 13.98 52.0721 15.26 54.2521 15.26C55.6121 15.26 56.7321 14.7 57.4321 13.56V15H59.5521V4.34H57.4321V10.58ZM62.1574 15H64.2974V9.18C64.2974 7.32 65.1774 6.08 67.2174 6.08C67.6574 6.08 68.0374 6.12 68.3574 6.22V4.34C68.1574 4.16 67.7574 4.06 67.3374 4.06C66.0974 4.06 64.9974 4.64 64.2974 5.92V4.34H62.1574V15ZM71.5137 7.14C71.5137 6.34 72.1937 5.76 73.3737 5.76C74.7337 5.76 75.5737 6.32 75.8137 7.82H77.9537C77.6137 5.16 75.8537 4.06 73.4737 4.06C70.7737 4.06 69.4737 5.6 69.4737 7.26C69.4737 11.64 76.1937 9.4 76.1937 12.06C76.1937 12.96 75.4337 13.6 73.9937 13.6C72.4937 13.6 71.4937 12.86 71.2737 11.52H69.1337C69.5337 14.06 71.3537 15.26 73.9337 15.26C76.5137 15.26 78.3337 13.94 78.3337 11.92C78.3337 7.58 71.5137 9.86 71.5137 7.14ZM89.7424 11.52H87.5024C87.1424 12.84 86.1824 13.48 84.8224 13.48C83.0824 13.48 82.0624 12.26 81.9424 10.08H89.6624V9.56C89.6624 6.14 87.8024 4.06 84.7224 4.06C81.6824 4.06 79.7624 6.06 79.7624 9.68C79.7624 13.16 81.6824 15.26 84.8224 15.26C87.3224 15.26 89.1624 14 89.7424 11.52ZM84.7224 5.84C86.2424 5.84 87.1824 6.82 87.4424 8.62H82.0024C82.2624 6.82 83.1824 5.84 84.7224 5.84ZM91.8059 15H93.9459V0.599999H91.8059V15ZM95.3324 6H96.7724V15H98.8924V6H100.932V4.34H98.8924V3.8C98.8924 2.58 99.2524 1.98 100.732 1.98H100.932V0.539999C100.712 0.439999 100.292 0.339999 99.7524 0.339999C97.7524 0.339999 96.7724 1.46 96.7724 3.78V4.34H95.3324V6ZM101.274 15H103.754V12.54H101.274V15Z" fill="url(#paint0_linear_2_46)"/>
<defs>
<linearGradient id="paint0_linear_2_46" x1="-1" y1="8" x2="105" y2="8" gradientUnits="userSpaceOnUse">
<stop stop-color="#6991FF"/>
<stop offset="0.276042" stop-color="#9DB7FF"/>
<stop offset="0.630208" stop-color="#ADFFB5"/>
<stop offset="1" stop-color="#DEFF99"/>
</linearGradient>
</defs>
</svg>
