<svg width="24" height="24" viewBox="0 0 24 24" fill="none" xmlns="http://www.w3.org/2000/svg">
<path d="M12 5.3999V18.5999" stroke="white" stroke-width="1.5" stroke-linecap="round" stroke-linejoin="round"/>
<path d="M12 23C18.0751 23 23 18.0751 23 12C23 5.92487 18.0751 1 12 1C5.92487 1 1 5.92487 1 12C1 18.0751 5.92487 23 12 23Z" stroke="white" stroke-width="1.5" stroke-linecap="round" stroke-linejoin="round"/>
<path d="M15.7583 7.6001H10.9458C10.3502 7.6001 9.77896 7.83188 9.35779 8.24446C8.93661 8.65704 8.7 9.21662 8.7 9.8001C8.7 10.3836 8.93661 10.9432 9.35779 11.3557C9.77896 11.7683 10.3502 12.0001 10.9458 12.0001H14.1542C14.7498 12.0001 15.321 12.2319 15.7422 12.6445C16.1634 13.057 16.4 13.6166 16.4 14.2001C16.4 14.7836 16.1634 15.3432 15.7422 15.7557C15.321 16.1683 14.7498 16.4001 14.1542 16.4001H8.7" stroke="white" stroke-width="1.5" stroke-linecap="round" stroke-linejoin="round"/>
</svg>
