<svg width="20" height="17" viewBox="0 0 20 17" fill="none" xmlns="http://www.w3.org/2000/svg">
<path d="M19.25 8.30005H13.775L11.95 11.0375H8.3L6.475 8.30005H1" stroke="black" stroke-width="1.5" stroke-linecap="round" stroke-linejoin="round"/>
<path d="M4.14812 2.01288L1 8.3V13.775C1 14.259 1.19228 14.7232 1.53453 15.0655C1.87678 15.4077 2.34098 15.6 2.825 15.6H17.425C17.909 15.6 18.3732 15.4077 18.7155 15.0655C19.0577 14.7232 19.25 14.259 19.25 13.775V8.3L16.1019 2.01288C15.9508 1.70882 15.7179 1.45294 15.4293 1.27401C15.1408 1.09507 14.808 1.00018 14.4685 1H5.7815C5.44197 1.00018 5.10923 1.09507 4.82068 1.27401C4.53213 1.45294 4.29921 1.70882 4.14812 2.01288V2.01288Z" stroke="black" stroke-width="1.5" stroke-linecap="round" stroke-linejoin="round"/>
</svg>
