<svg width="258" height="15" viewBox="0 0 258 15" fill="none" xmlns="http://www.w3.org/2000/svg">
<path fill-rule="evenodd" clip-rule="evenodd" d="M8.82 14.4H0V0.8H2.24V12.58H8.82V14.4ZM17.9389 10.92H20.1789C19.5989 13.4 17.7589 14.66 15.2589 14.66C12.1189 14.66 10.1989 12.56 10.1989 9.08C10.1989 5.46 12.1189 3.46 15.1589 3.46C18.2389 3.46 20.0989 5.54 20.0989 8.96V9.48H12.3789C12.4989 11.66 13.5189 12.88 15.2589 12.88C16.6189 12.88 17.5789 12.24 17.9389 10.92ZM17.8789 8.02C17.6189 6.22 16.6789 5.24 15.1589 5.24C13.6189 5.24 12.6989 6.22 12.4389 8.02H17.8789ZM26.5823 5.26C25.2023 5.26 24.4623 6.02 24.2623 7.22H22.1223C22.4623 4.86 24.0823 3.46 26.7423 3.46C29.6423 3.46 31.0823 5.16 31.0823 7.64V11.8C31.0823 13.08 31.2023 13.82 31.4423 14.4H29.2023C29.0423 14 28.9823 13.44 28.9623 12.84C28.0623 14.1 26.6823 14.66 25.4023 14.66C23.2423 14.66 21.7623 13.64 21.7623 11.6C21.7623 10.14 22.5623 9.06 24.1623 8.52C25.5823 8.04 27.0223 7.92 28.9423 7.9V7.66C28.9423 6.1 28.2223 5.26 26.5823 5.26ZM28.9423 9.36C24.8423 9.4 23.9223 10.3 23.9223 11.52C23.9223 12.42 24.6623 12.98 25.8023 12.98C27.5823 12.98 28.9423 11.56 28.9423 9.84V9.36ZM35.9058 14.4H33.7658V3.74H35.9058V5.32C36.6058 4.04 37.7058 3.46 38.9458 3.46C39.3658 3.46 39.7658 3.56 39.9658 3.74V5.62C39.6458 5.52 39.2658 5.48 38.8258 5.48C36.7858 5.48 35.9058 6.72 35.9058 8.58V14.4ZM43.562 14.4H41.422V3.74H43.562V5.16C44.282 4.02 45.402 3.46 46.782 3.46C49.002 3.46 50.382 4.76 50.382 7.28V14.4H48.262V7.72C48.262 6.18 47.582 5.24 46.122 5.24C44.522 5.24 43.562 6.66 43.562 8.14V14.4ZM59.0503 14.4H56.9103V3.74H59.0503V5.1C59.7303 4 60.7903 3.46 62.0503 3.46C63.4703 3.46 64.5303 4.08 65.0503 5.3C65.7503 4.08 66.9103 3.46 68.3103 3.46C70.4103 3.46 71.7703 4.76 71.7703 7.28V14.4H69.6303V7.72C69.6303 6.18 69.0503 5.24 67.7303 5.24C66.2903 5.24 65.4103 6.66 65.4103 8.14V14.4H63.2703V7.72C63.2703 6.18 62.6703 5.24 61.3703 5.24C59.9303 5.24 59.0503 6.66 59.0503 8.14V14.4ZM83.8112 9.08C83.8112 12.68 81.8713 14.66 78.8313 14.66C75.7313 14.66 73.8512 12.56 73.8512 9.08C73.8512 5.46 75.7913 3.46 78.8313 3.46C81.9313 3.46 83.8112 5.6 83.8112 9.08ZM76.0312 9.08C76.0312 11.5 77.0312 12.86 78.8313 12.86C80.6513 12.86 81.6312 11.54 81.6312 9.08C81.6312 6.64 80.6312 5.26 78.8313 5.26C77.0312 5.26 76.0312 6.6 76.0312 9.08ZM88.0347 14.4H85.8947V3.74H88.0347V5.32C88.7347 4.04 89.8347 3.46 91.0747 3.46C91.4947 3.46 91.8947 3.56 92.0947 3.74V5.62C91.7747 5.52 91.3947 5.48 90.9547 5.48C88.9147 5.48 88.0347 6.72 88.0347 8.58V14.4ZM100.576 10.92H102.816C102.236 13.4 100.396 14.66 97.8956 14.66C94.7556 14.66 92.8356 12.56 92.8356 9.08C92.8356 5.46 94.7556 3.46 97.7956 3.46C100.876 3.46 102.736 5.54 102.736 8.96V9.48H95.0156C95.1356 11.66 96.1556 12.88 97.8956 12.88C99.2556 12.88 100.216 12.24 100.576 10.92ZM100.516 8.02C100.256 6.22 99.3156 5.24 97.7956 5.24C96.2556 5.24 95.3356 6.22 95.0756 8.02H100.516ZM113.145 5.26C111.765 5.26 111.025 6.02 110.825 7.22H108.685C109.025 4.86 110.645 3.46 113.305 3.46C116.205 3.46 117.645 5.16 117.645 7.64V11.8C117.645 13.08 117.765 13.82 118.005 14.4H115.765C115.605 14 115.545 13.44 115.525 12.84C114.625 14.1 113.245 14.66 111.965 14.66C109.805 14.66 108.325 13.64 108.325 11.6C108.325 10.14 109.125 9.06 110.725 8.52C112.145 8.04 113.585 7.92 115.505 7.9V7.66C115.505 6.1 114.785 5.26 113.145 5.26ZM115.505 9.36C111.405 9.4 110.485 10.3 110.485 11.52C110.485 12.42 111.225 12.98 112.365 12.98C114.145 12.98 115.505 11.56 115.505 9.84V9.36ZM122.468 13.2V14.4H120.328V0H122.468V4.98C123.148 4 124.148 3.46 125.368 3.46C128.168 3.46 129.868 5.56 129.868 9.04C129.868 12.66 128.128 14.66 125.368 14.66C124.148 14.66 123.148 14.16 122.468 13.2ZM127.688 9.04C127.688 6.62 126.748 5.26 125.088 5.26C123.368 5.26 122.468 6.6 122.468 9.04C122.468 11.48 123.408 12.86 125.088 12.86C126.768 12.86 127.688 11.52 127.688 9.04ZM141.389 9.08C141.389 12.68 139.449 14.66 136.409 14.66C133.309 14.66 131.429 12.56 131.429 9.08C131.429 5.46 133.369 3.46 136.409 3.46C139.509 3.46 141.389 5.6 141.389 9.08ZM133.609 9.08C133.609 11.5 134.609 12.86 136.409 12.86C138.229 12.86 139.209 11.54 139.209 9.08C139.209 6.64 138.209 5.26 136.409 5.26C134.609 5.26 133.609 6.6 133.609 9.08ZM147.673 12.88C149.233 12.88 150.193 11.46 150.193 9.98V3.74H152.313V14.4H150.193V12.96C149.493 14.1 148.373 14.66 147.013 14.66C144.833 14.66 143.473 13.38 143.473 10.86V3.74H145.613V10.42C145.613 11.96 146.253 12.88 147.673 12.88ZM158.258 14.66C156.178 14.66 155.198 13.52 155.198 11.22V5.4H153.758V3.74H155.198V1.28H157.338V3.74H159.638V5.4H157.338V11.1C157.338 12.32 157.678 12.9 159.178 12.9H159.598V14.46C159.358 14.58 158.858 14.66 158.258 14.66ZM169.372 12.88C170.932 12.88 171.892 11.46 171.892 9.98V3.74H174.012V14.4H171.892V12.96C171.192 14.1 170.072 14.66 168.712 14.66C166.532 14.66 165.172 13.38 165.172 10.86V3.74H167.312V10.42C167.312 11.96 167.952 12.88 169.372 12.88ZM180.177 5.16C178.997 5.16 178.317 5.74 178.317 6.54C178.317 7.74186 179.649 7.96752 181.135 8.21942C183.013 8.53761 185.137 8.89767 185.137 11.32C185.137 13.34 183.317 14.66 180.737 14.66C178.157 14.66 176.337 13.46 175.937 10.92H178.077C178.297 12.26 179.297 13 180.797 13C182.237 13 182.997 12.36 182.997 11.46C182.997 10.295 181.708 10.0699 180.259 9.8169C178.4 9.49226 176.277 9.12164 176.277 6.66C176.277 5 177.577 3.46 180.277 3.46C182.657 3.46 184.417 4.56 184.757 7.22H182.617C182.377 5.72 181.537 5.16 180.177 5.16ZM193.152 14.4H191.012V0H193.152V5.16C193.872 4.02 194.992 3.46 196.372 3.46C198.592 3.46 199.972 4.76 199.972 7.28V14.4H197.852V7.72C197.852 6.18 197.172 5.24 195.712 5.24C194.112 5.24 193.152 6.66 193.152 8.14V14.4ZM209.794 10.92H212.034C211.454 13.4 209.614 14.66 207.114 14.66C203.974 14.66 202.054 12.56 202.054 9.08C202.054 5.46 203.974 3.46 207.014 3.46C210.094 3.46 211.954 5.54 211.954 8.96V9.48H204.234C204.354 11.66 205.374 12.88 207.114 12.88C208.474 12.88 209.434 12.24 209.794 10.92ZM209.734 8.02C209.474 6.22 208.534 5.24 207.014 5.24C205.474 5.24 204.554 6.22 204.294 8.02H209.734ZM216.238 14.4H214.098V3.74H216.238V5.32C216.938 4.04 218.038 3.46 219.278 3.46C219.698 3.46 220.098 3.56 220.298 3.74V5.62C219.978 5.52 219.598 5.48 219.158 5.48C217.118 5.48 216.238 6.72 216.238 8.58V14.4ZM228.779 10.92H231.019C230.439 13.4 228.599 14.66 226.099 14.66C222.959 14.66 221.039 12.56 221.039 9.08C221.039 5.46 222.959 3.46 225.999 3.46C229.079 3.46 230.939 5.54 230.939 8.96V9.48H223.219C223.339 11.66 224.359 12.88 226.099 12.88C227.459 12.88 228.419 12.24 228.779 10.92ZM228.719 8.02C228.459 6.22 227.519 5.24 225.999 5.24C224.459 5.24 223.539 6.22 223.279 8.02H228.719ZM250.873 1.69289C251.264 1.30237 251.897 1.30237 252.288 1.69289L257.288 6.69289C257.678 7.08342 257.678 7.71658 257.288 8.10711L252.288 13.1071C251.897 13.4976 251.264 13.4976 250.873 13.1071C250.483 12.7166 250.483 12.0834 250.873 11.6929L254.166 8.4H245C244.448 8.4 244 7.95229 244 7.4C244 6.84772 244.448 6.4 245 6.4H254.166L250.873 3.10711C250.483 2.71658 250.483 2.08342 250.873 1.69289Z" fill="url(#paint0_linear_2_76)"/>
<defs>
<linearGradient id="paint0_linear_2_76" x1="-18.6035" y1="113.367" x2="279.865" y2="113.367" gradientUnits="userSpaceOnUse">
<stop stop-color="#6991FF"/>
<stop offset="0.276042" stop-color="#9DB7FF"/>
<stop offset="0.630208" stop-color="#ADFFB5"/>
<stop offset="1" stop-color="#DEFF99"/>
</linearGradient>
</defs>
</svg>
