<svg width="96" height="18" viewBox="0 0 96 18" fill="none" xmlns="http://www.w3.org/2000/svg">
<path d="M57.2665 0.983088C56.3844 1.5854 55.4076 2.04607 54.3739 2.34736C53.8191 1.72988 53.0818 1.29223 52.2616 1.09359C51.4415 0.894954 50.5781 0.94492 49.7882 1.23673C48.9984 1.52854 48.3201 2.04811 47.8453 2.72518C47.3704 3.40224 47.1219 4.20413 47.1332 5.02239V5.91407C45.5143 5.9547 43.9101 5.60717 42.4636 4.90241C41.017 4.19766 39.773 3.15757 38.8423 1.87477C38.8423 1.87477 35.1575 9.89987 43.4484 13.4666C41.5512 14.7131 39.2911 15.3382 36.9999 15.2499C45.2908 19.7083 55.4241 15.2499 55.4241 4.99564C55.4233 4.74727 55.3986 4.49951 55.3504 4.25555C56.2906 3.35807 56.9541 2.22494 57.2665 0.983088Z" fill="#FFFFF9" stroke="#929292" stroke-width="1.5" stroke-linecap="round" stroke-linejoin="round"/>
<path d="M12.9999 0.974121H4.99988C2.79074 0.974121 0.999878 2.76498 0.999878 4.97412V12.9741C0.999878 15.1833 2.79074 16.9741 4.99988 16.9741H12.9999C15.209 16.9741 16.9999 15.1833 16.9999 12.9741V4.97412C16.9999 2.76498 15.209 0.974121 12.9999 0.974121Z" fill="#FFFFF9" stroke="#929292" stroke-width="1.5" stroke-linecap="round" stroke-linejoin="round"/>
<path d="M12.1997 8.46987C12.2985 9.13567 12.1847 9.81565 11.8747 10.4131C11.5647 11.0105 11.0743 11.495 10.473 11.7976C9.87183 12.1002 9.1905 12.2056 8.52597 12.0986C7.86144 11.9917 7.24755 11.6779 6.77161 11.202C6.29567 10.7261 5.98193 10.1122 5.875 9.44764C5.76806 8.78312 5.87339 8.10179 6.176 7.50057C6.47861 6.89936 6.96309 6.40887 7.56053 6.09887C8.15797 5.78887 8.83794 5.67514 9.50374 5.77387C10.1829 5.87458 10.8116 6.19104 11.2971 6.67652C11.7826 7.16199 12.099 7.79074 12.1997 8.46987Z" fill="#FFFFF9" stroke="#929292" stroke-width="1.5" stroke-linecap="round" stroke-linejoin="round"/>
<path d="M13.3998 4.57422H13.4087" stroke="#929292" stroke-width="1.5" stroke-linecap="round" stroke-linejoin="round"/>
<path d="M89.2665 5.97412C90.5926 5.97412 91.8643 6.50901 92.802 7.46112C93.7397 8.41323 94.2665 9.70456 94.2665 11.051V16.9741H90.9332V11.051C90.9332 10.6022 90.7576 10.1718 90.445 9.85441C90.1324 9.53704 89.7085 9.35874 89.2665 9.35874C88.8245 9.35874 88.4005 9.53704 88.088 9.85441C87.7754 10.1718 87.5998 10.6022 87.5998 11.051V16.9741H84.2665V11.051C84.2665 9.70456 84.7933 8.41323 85.7309 7.46112C86.6686 6.50901 87.9404 5.97412 89.2665 5.97412V5.97412Z" fill="#FFFFF9" stroke="#929292" stroke-width="1.5" stroke-linecap="round" stroke-linejoin="round"/>
<path d="M81.2665 6.97412H77.2665V16.9741H81.2665V6.97412Z" fill="#FFFFF9" stroke="#929292" stroke-width="1.5" stroke-linecap="round" stroke-linejoin="round"/>
<path d="M79.2665 4.97413C80.3711 4.97413 81.2665 4.07869 81.2665 2.97412C81.2665 1.86955 80.3711 0.974121 79.2665 0.974121C78.1619 0.974121 77.2665 1.86955 77.2665 2.97412C77.2665 4.07869 78.1619 4.97413 79.2665 4.97413Z" fill="#FFFFF9" stroke="#929292" stroke-width="1.5" stroke-linecap="round" stroke-linejoin="round"/>
</svg>
