<svg width="156" height="29" viewBox="0 0 156 29" fill="none" xmlns="http://www.w3.org/2000/svg">
<path d="M0.368711 22H8.88871C13.3887 22 16.0587 19.87 16.0587 16.18C16.0587 13.78 14.7087 12.01 12.1887 11.26C13.9587 10.51 14.9187 9.04 14.9187 7.15C14.9187 3.73 12.1887 1.6 7.86871 1.6H0.368711V22ZM7.77871 4.27C10.0887 4.27 11.4687 5.44 11.4687 7.33C11.4687 9.07 10.1187 10.27 7.71871 10.27H3.72871V4.27H7.77871ZM8.46871 12.88C11.0787 12.88 12.6087 14.14 12.6087 16.09C12.6087 18.04 11.1687 19.33 8.79871 19.33H3.72871V12.88H8.46871ZM33.3617 16.78H30.0017C29.4617 18.76 28.0217 19.72 25.9817 19.72C23.3717 19.72 21.8417 17.89 21.6617 14.62H33.2417V13.84C33.2417 8.71 30.4517 5.59 25.8317 5.59C21.2717 5.59 18.3917 8.59 18.3917 14.02C18.3917 19.24 21.2717 22.39 25.9817 22.39C29.7317 22.39 32.4917 20.5 33.3617 16.78ZM25.8317 8.26C28.1117 8.26 29.5217 9.73 29.9117 12.43H21.7517C22.1417 9.73 23.5217 8.26 25.8317 8.26ZM43.4855 28.99C46.3355 28.99 47.5655 27.85 49.1855 23.86L56.4455 6.01H53.1755L49.3355 15.97L48.6455 18.16L47.9555 15.97L43.9955 6.01H40.5455L46.9655 21.43L46.4855 22.54C45.1055 25.87 44.4155 26.23 42.5855 26.23H41.7155V28.69C42.0755 28.81 42.7955 28.99 43.4855 28.99ZM64.973 22.39C69.533 22.39 72.443 19.42 72.443 14.02C72.443 8.8 69.623 5.59 64.973 5.59C60.413 5.59 57.503 8.59 57.503 14.02C57.503 19.24 60.323 22.39 64.973 22.39ZM64.973 19.69C62.273 19.69 60.773 17.65 60.773 14.02C60.773 10.3 62.273 8.29 64.973 8.29C67.673 8.29 69.173 10.36 69.173 14.02C69.173 17.71 67.703 19.69 64.973 19.69ZM85.6482 15.37C85.6482 17.59 84.2082 19.72 81.8682 19.72C79.7382 19.72 78.7782 18.34 78.7782 16.03V6.01H75.5682V16.69C75.5682 20.47 77.6082 22.39 80.8782 22.39C82.9182 22.39 84.5982 21.55 85.6482 19.84V22H88.8282V6.01H85.6482V15.37ZM92.7361 22H95.9461V13.27C95.9461 10.48 97.2661 8.62 100.326 8.62C100.986 8.62 101.556 8.68 102.036 8.83V6.01C101.736 5.74 101.136 5.59 100.506 5.59C98.6461 5.59 96.9961 6.46 95.9461 8.38V6.01H92.7361V22ZM106.771 10.21C106.771 9.01 107.791 8.14 109.561 8.14C111.601 8.14 112.861 8.98 113.221 11.23H116.431C115.921 7.24 113.281 5.59 109.711 5.59C105.661 5.59 103.711 7.9 103.711 10.39C103.711 16.96 113.791 13.6 113.791 17.59C113.791 18.94 112.651 19.9 110.491 19.9C108.241 19.9 106.741 18.79 106.411 16.78H103.201C103.801 20.59 106.531 22.39 110.401 22.39C114.271 22.39 117.001 20.41 117.001 17.38C117.001 10.87 106.771 14.29 106.771 10.21ZM134.114 16.78H130.754C130.214 18.76 128.774 19.72 126.734 19.72C124.124 19.72 122.594 17.89 122.414 14.62H133.994V13.84C133.994 8.71 131.204 5.59 126.584 5.59C122.024 5.59 119.144 8.59 119.144 14.02C119.144 19.24 122.024 22.39 126.734 22.39C130.484 22.39 133.244 20.5 134.114 16.78ZM126.584 8.26C128.864 8.26 130.274 9.73 130.664 12.43H122.504C122.894 9.73 124.274 8.26 126.584 8.26ZM137.209 22H140.419V0.399999H137.209V22ZM142.499 8.5H144.659V22H147.839V8.5H150.899V6.01H147.839V5.2C147.839 3.37 148.379 2.47 150.599 2.47H150.899V0.309999C150.569 0.159999 149.939 0.0099988 149.129 0.0099988C146.129 0.0099988 144.659 1.69 144.659 5.17V6.01H142.499V8.5ZM151.411 22H155.131V18.31H151.411V22Z" fill="url(#paint0_linear_2_83)"/>
<defs>
<linearGradient id="paint0_linear_2_83" x1="-2" y1="11" x2="157" y2="11" gradientUnits="userSpaceOnUse">
<stop stop-color="#6991FF"/>
<stop offset="0.276042" stop-color="#9DB7FF"/>
<stop offset="0.630208" stop-color="#ADFFB5"/>
<stop offset="1" stop-color="#DEFF99"/>
</linearGradient>
</defs>
</svg>
