<svg width="22" height="19" viewBox="0 0 22 19" fill="none" xmlns="http://www.w3.org/2000/svg">
<path d="M20.9999 9.97412H14.9999L12.9999 12.9741H8.99988L6.99988 9.97412H0.999878" stroke="black" stroke-width="2" stroke-linecap="round" stroke-linejoin="round"/>
<path d="M4.44988 3.08412L0.999878 9.97412V15.9741C0.999878 16.5046 1.21059 17.0133 1.58566 17.3883C1.96074 17.7634 2.46944 17.9741 2.99988 17.9741H18.9999C19.5303 17.9741 20.039 17.7634 20.4141 17.3883C20.7892 17.0133 20.9999 16.5046 20.9999 15.9741V9.97412L17.5499 3.08412C17.3843 2.75091 17.1291 2.47049 16.8128 2.2744C16.4966 2.07831 16.132 1.97432 15.7599 1.97412H6.23988C5.86779 1.97432 5.50314 2.07831 5.18692 2.2744C4.8707 2.47049 4.61546 2.75091 4.44988 3.08412V3.08412Z" stroke="black" stroke-width="2" stroke-linecap="round" stroke-linejoin="round"/>
</svg>
